G04 FreePCB version 1.359*
G04 D:\Users\waynej\My Documents\GitHub\mGPS\A2235\CAM\bottom_copper.grb*
G04 bottom copper layer *
G04 Scale: 100 percent, Rotated: No, Reflected: No *
%FSLAX24Y24*%
%MOIN*%
%LN bottom copper *%
G04 Rounded Rectangle Macro, params: W/2, H/2, R *
%AMRNDREC*
21,1,$1+$1,$2+$2-$3-$3,0,0,0*
21,1,$1+$1-$3-$3,$2+$2,0,0,0*
1,1,$3+$3,$1-$3,$2-$3*
1,1,$3+$3,$3-$1,$2-$3*
1,1,$3+$3,$1-$3,$3-$2*
1,1,$3+$3,$3-$1,$3-$2*%
G04 Rectangular Thermal Macro, params: W/2, H/2, T/2 *
%AMRECTHERM*
$4=$3/2*
21,1,$1-$3,$2-$3,0-$1/2-$4,0-$2/2-$4,0*
21,1,$1-$3,$2-$3,0-$1/2-$4,$2/2+$4,0*
21,1,$1-$3,$2-$3,$1/2+$4,0-$2/2-$4,0*
21,1,$1-$3,$2-$3,$1/2+$4,$2/2+$4,0*%
%ADD10C,0.005000*%
%ADD11R,0.070000X0.070000*%
%ADD12RECTHERM,0.035000X0.035000X0.005000*%
%ADD13C,0.001000*%
%ADD14C,0.148110*%
%ADD15C,0.049685*%
%ADD16C,0.170000*%
%AMTHERM17*7,0,0,0.170000,0.150000,0.010000,45.0*%
%ADD17THERM17*%
%ADD18C,0.124000*%
%ADD19C,0.048000*%
%ADD20C,0.030000*%
%ADD21C,0.045000*%
%ADD22R,0.050000X0.050000*%
%ADD23R,0.047244X0.078740*%
%ADD24C,0.150000*%
%ADD25C,0.028000*%
%ADD26C,0.010000*%
%ADD27C,0.025000*%
G90*
G70D02*

G04 Step and Repeat for panelization *

G04 ----------------------- Draw board outline (positive)*
%LPD*%
G54D10*
G01X-20078Y6456D02*
G01X-20078Y-7322D01*
G04 end of side 1*
G01X20078Y-7322D01*
G04 end of side 2*
G01X20078Y6456D01*
G04 end of side 3*
G01X-20078Y6456D01*

G04 ----------------------- Draw copper area (positive)*
G36*
G01X19685Y-6929D02*
G01X-19685Y-6929D01*
G01X-19685Y6062D01*
G01X19685Y6062D01*
G01X19685Y-6929D01*
G37*

G04 -------------------- Draw copper area clearances (negative)*
%LPC*%

G04 Draw clearances for pads*
G54D11*
G01X16535Y4330D03*
G01X15755Y4330D03*
G01X14965Y4330D03*
G01X14173Y4330D03*
G01X13385Y4330D03*
G01X12598Y4330D03*
G01X11811Y4330D03*
G01X11023Y4330D03*
G01X10236Y4330D03*
G54D12*
G01X9448Y4330D03*
G54D13*
G54D11*
G01X9448Y-4330D03*
G01X10236Y-4330D03*
G01X11023Y-4330D03*
G01X11811Y-4330D03*
G01X12598Y-4330D03*
G01X13385Y-4330D03*
G01X14173Y-4330D03*
G01X14960Y-4330D03*
G01X15748Y-4330D03*
G01X16535Y-4329D03*
G54D13*
G54D14*
G01X-16633Y397D03*
G54D15*
G01X-17681Y1636D03*
G01X-16771Y1633D03*
G01X-15866Y1633D03*
G01X-14960Y1633D03*
G01X-17677Y-1397D03*
G01X-16771Y-1397D03*
G01X-15866Y-1397D03*
G01X-14960Y-1397D03*
G54D16*
G01X18245Y0D03*
G54D17*
G01X-10214Y0D03*
G54D13*
G54D16*
G01X14890Y-3150D03*
G01X-6859Y3150D03*
G54D18*
G01X-10209Y-3150D03*

G04 Draw clearances for traces*
G54D19*
G01X1244Y1200D03*
G01X2500Y1200D03*
G54D20*
G01X1244Y1200D02*
G01X2500Y1200D01*
G54D19*
G01X4527Y1811D03*
G54D21*
G01X4527Y1811D02*
G01X1244Y1811D01*
G54D19*
G01X1244Y1208D03*
G54D21*
G01X1244Y1811D02*
G01X1244Y1208D01*
G54D19*
G01X-8070Y-4133D03*
G54D20*
G01X-8070Y-4133D02*
G01X-8070Y826D01*
G54D19*
G01X-5511Y826D03*
G54D20*
G01X-8070Y826D02*
G01X-5511Y826D01*
G54D19*
G01X472Y-2125D03*
G01X-6692Y-2125D03*
G54D21*
G01X472Y-2125D02*
G01X-6692Y-2125D01*
G54D19*
G01X472Y-2125D03*
G54D21*
G01X472Y-2125D02*
G01X14173Y-2125D01*
G01X14173Y-2125D02*
G01X16259Y0D01*
G01X16259Y0D02*
G01X18245Y0D01*

G04 Draw clearances for text*

G04 -------------- Draw Parts, Pads, Traces, Vias and Text (positive)*
%LPD*%
G04 Draw part C4*
G04 Draw part R3*
G04 Draw part R1*
G04 Draw part R2*
G04 Draw part V1*
G04 Draw part C1*
G04 Draw part C2*
G04 Draw part C3*
G04 Draw part U2*
G54D22*
G01X16535Y4330D03*
G01X15755Y4330D03*
G01X14965Y4330D03*
G01X14173Y4330D03*
G01X13385Y4330D03*
G01X12598Y4330D03*
G01X11811Y4330D03*
G01X11023Y4330D03*
G01X10236Y4330D03*
G01X9448Y4330D03*
G01X9448Y-4330D03*
G01X10236Y-4330D03*
G01X11023Y-4330D03*
G01X11811Y-4330D03*
G01X12598Y-4330D03*
G01X13385Y-4330D03*
G01X14173Y-4330D03*
G01X14960Y-4330D03*
G01X15748Y-4330D03*
G01X16535Y-4329D03*
G04 Draw part U1*
G54D23*
G01X1968Y-748D03*
G04 Draw part U3*
G04 Draw part L1*
G04 Draw part B1*
G54D24*
G01X18245Y0D03*
G01X-10214Y0D03*
G04 Draw part U4*
G04 Draw part C5*
G04 Draw part D2*
G04 Draw part R5*
G04 Draw part C6*
G04 Draw part R4*
G04 Draw part Z1*

G04 Draw traces*
G54D25*
G01X1244Y1200D03*
G54D26*
G01X1244Y1200D02*
G01X2500Y1200D01*
G54D25*
G01X2500Y1200D03*
G01X4527Y1811D03*
G54D27*
G01X4527Y1811D02*
G01X1244Y1811D01*
G01X1244Y1811D02*
G01X1244Y1208D01*
G54D25*
G01X1244Y1208D03*
G01X-8070Y-4133D03*
G54D26*
G01X-8070Y-4133D02*
G01X-8070Y826D01*
G01X-8070Y826D02*
G01X-5511Y826D01*
G54D25*
G01X-5511Y826D03*
G01X472Y-2125D03*
G54D27*
G01X472Y-2125D02*
G01X-6692Y-2125D01*
G54D25*
G01X-6692Y-2125D03*
G01X472Y-2125D03*
G54D27*
G01X472Y-2125D02*
G01X14173Y-2125D01*
G01X14173Y-2125D02*
G01X16259Y0D01*
G01X16259Y0D02*
G01X18245Y0D01*

G04 Draw Text*
M00*
M02*
