;Holesize 1 =   29.0 PLATED MILS
;Holesize 2 =   11.0 PLATED MILS
;Holesize 3 =  118.0 PLATED MILS
;Holesize 4 =   19.0 PLATED MILS
;Holesize 5 =   52.0 PLATED MILS
;Holesize 6 =  140.0 PLATED MILS
;Holesize 7 =   94.0 PLATED MILS
;Holesize 8 =   14.0 PLATED MILS
M48
INCH,00.0000
T01C0.029
T02C0.011
T03C0.118
T04C0.019
T05C0.052
T06C0.140
T07C0.094
T08C0.014
%
G05
G90
T01
X016535Y004330
X015755Y004330
X014965Y004330
X014173Y004330
X013385Y004330
X012598Y004330
X011811Y004330
X011023Y004330
X010236Y004330
X009448Y004330
X009448Y-004330
X010236Y-004330
X011023Y-004330
X011811Y-004330
X012598Y-004330
X013385Y-004330
X014173Y-004330
X014960Y-004330
X015748Y-004330
X016535Y-004329
T02
X001968Y-000748
T03
X-016633Y000397
T04
X-017681Y001636
X-016771Y001633
X-015866Y001633
X-014960Y001633
X-017677Y-001397
X-016771Y-001397
X-015866Y-001397
X-014960Y-001397
T05
X018245Y000000
X-010214Y000000
T06
X014890Y-003150
X-006859Y003150
T07
X-010209Y-003150
T08
X001244Y001200
X002500Y001200
X004527Y001811
X001244Y001208
X-008070Y-004133
X-005511Y000826
X000472Y-002125
X-006692Y-002125
X000472Y-002125
M30
