G04 FreePCB version 1.359*
G04 D:\Users\waynej\My Documents\GitHub\mGPS\A2235\CAM\top_silk.grb*
G04 top silk layer *
G04 Scale: 100 percent, Rotated: No, Reflected: No *
%FSLAX24Y24*%
%MOIN*%
%LN top silk *%
G04 Rounded Rectangle Macro, params: W/2, H/2, R *
%AMRNDREC*
21,1,$1+$1,$2+$2-$3-$3,0,0,0*
21,1,$1+$1-$3-$3,$2+$2,0,0,0*
1,1,$3+$3,$1-$3,$2-$3*
1,1,$3+$3,$3-$1,$2-$3*
1,1,$3+$3,$1-$3,$3-$2*
1,1,$3+$3,$3-$1,$3-$2*%
G04 Rectangular Thermal Macro, params: W/2, H/2, T/2 *
%AMRECTHERM*
$4=$3/2*
21,1,$1-$3,$2-$3,0-$1/2-$4,0-$2/2-$4,0*
21,1,$1-$3,$2-$3,0-$1/2-$4,$2/2+$4,0*
21,1,$1-$3,$2-$3,$1/2+$4,0-$2/2-$4,0*
21,1,$1-$3,$2-$3,$1/2+$4,$2/2+$4,0*%
%ADD10C,0.005000*%
%ADD11C,0.007000*%
%ADD12C,0.010000*%
G90*
G70D02*

G04 Step and Repeat for panelization *

G04 ----------------------- Draw board outline (positive)*
%LPD*%
G54D10*
G01X-20078Y6456D02*
G01X-20078Y-7322D01*
G04 end of side 1*
G01X20078Y-7322D01*
G04 end of side 2*
G01X20078Y6456D01*
G04 end of side 3*
G01X-20078Y6456D01*

G04 -------------- Draw Parts, Pads, Traces, Vias and Text (positive)*
%LPD*%
G04 Draw part C4*
G04 draw part outline for part C4*
G54D11*
G01X5236Y3779D02*
G01X5236Y1811D01*
G01X5236Y1811D02*
G01X4212Y1811D01*
G01X4212Y1811D02*
G01X4212Y3779D01*
G01X4212Y3779D02*
G01X5236Y3779D01*
G04 draw reference designator for part C4*
G01X5724Y2634D02*
G01X5678Y2611D01*
G01X5769Y2680D02*
G01X5724Y2634D01*
G01X5792Y2725D02*
G01X5769Y2680D01*
G01X5792Y2816D02*
G01X5792Y2725D01*
G01X5792Y2816D02*
G01X5769Y2861D01*
G01X5769Y2861D02*
G01X5724Y2907D01*
G01X5724Y2907D02*
G01X5678Y2930D01*
G01X5678Y2930D02*
G01X5610Y2952D01*
G01X5610Y2952D02*
G01X5496Y2952D01*
G01X5496Y2952D02*
G01X5428Y2930D01*
G01X5428Y2930D02*
G01X5383Y2907D01*
G01X5383Y2907D02*
G01X5337Y2861D01*
G01X5337Y2861D02*
G01X5314Y2816D01*
G01X5314Y2725D02*
G01X5314Y2816D01*
G01X5337Y2680D02*
G01X5314Y2725D01*
G01X5383Y2634D02*
G01X5337Y2680D01*
G01X5428Y2611D02*
G01X5383Y2634D01*
G01X5792Y2202D02*
G01X5474Y2430D01*
G01X5474Y2089D02*
G01X5474Y2430D01*
G01X5792Y2202D02*
G01X5314Y2202D01*
G04 Draw part R3*
G04 draw part outline for part R3*
G01X-15748Y-5590D02*
G01X-17716Y-5590D01*
G01X-17716Y-5590D02*
G01X-17716Y-4724D01*
G01X-17716Y-4724D02*
G01X-15748Y-4724D01*
G01X-15748Y-4724D02*
G01X-15748Y-5590D01*
G04 draw reference designator for part R3*
G01X-16850Y-5900D02*
G01X-16850Y-6377D01*
G01X-16645Y-5900D02*
G01X-16850Y-5900D01*
G01X-16645Y-5900D02*
G01X-16577Y-5923D01*
G01X-16577Y-5923D02*
G01X-16554Y-5946D01*
G01X-16554Y-5946D02*
G01X-16532Y-5991D01*
G01X-16532Y-5991D02*
G01X-16532Y-6037D01*
G01X-16532Y-6037D02*
G01X-16554Y-6082D01*
G01X-16554Y-6082D02*
G01X-16577Y-6105D01*
G01X-16577Y-6105D02*
G01X-16645Y-6127D01*
G01X-16850Y-6127D02*
G01X-16645Y-6127D01*
G01X-16691Y-6127D02*
G01X-16532Y-6377D01*
G01X-16054Y-5900D02*
G01X-16304Y-5900D01*
G01X-16054Y-5900D02*
G01X-16191Y-6082D01*
G01X-16123Y-6082D02*
G01X-16191Y-6082D01*
G01X-16123Y-6082D02*
G01X-16077Y-6105D01*
G01X-16077Y-6105D02*
G01X-16054Y-6127D01*
G01X-16054Y-6127D02*
G01X-16032Y-6196D01*
G01X-16032Y-6196D02*
G01X-16032Y-6241D01*
G01X-16032Y-6241D02*
G01X-16054Y-6309D01*
G01X-16054Y-6309D02*
G01X-16100Y-6355D01*
G01X-16100Y-6355D02*
G01X-16168Y-6377D01*
G01X-16236Y-6377D02*
G01X-16168Y-6377D01*
G01X-16304Y-6355D02*
G01X-16236Y-6377D01*
G01X-16327Y-6332D02*
G01X-16304Y-6355D01*
G01X-16350Y-6287D02*
G01X-16327Y-6332D01*
G04 Draw part R1*
G04 draw part outline for part R1*
G01X-12598Y984D02*
G01X-12598Y2952D01*
G01X-12598Y2952D02*
G01X-11732Y2952D01*
G01X-11732Y2952D02*
G01X-11732Y984D01*
G01X-11732Y984D02*
G01X-12598Y984D01*
G04 draw reference designator for part R1*
G01X-11136Y2952D02*
G01X-11614Y2952D01*
G01X-11136Y2748D02*
G01X-11136Y2952D01*
G01X-11136Y2748D02*
G01X-11159Y2680D01*
G01X-11159Y2680D02*
G01X-11182Y2657D01*
G01X-11182Y2657D02*
G01X-11227Y2634D01*
G01X-11227Y2634D02*
G01X-11273Y2634D01*
G01X-11273Y2634D02*
G01X-11318Y2657D01*
G01X-11318Y2657D02*
G01X-11341Y2680D01*
G01X-11341Y2680D02*
G01X-11364Y2748D01*
G01X-11364Y2952D02*
G01X-11364Y2748D01*
G01X-11364Y2793D02*
G01X-11614Y2634D01*
G01X-11205Y2407D02*
G01X-11227Y2452D01*
G01X-11136Y2339D02*
G01X-11205Y2407D01*
G01X-11136Y2339D02*
G01X-11614Y2339D01*
G04 Draw part R2*
G04 draw part outline for part R2*
G01X-12637Y-1948D02*
G01X-12637Y19D01*
G01X-12637Y19D02*
G01X-11771Y19D01*
G01X-11771Y19D02*
G01X-11771Y-1948D01*
G01X-11771Y-1948D02*
G01X-12637Y-1948D01*
G04 draw reference designator for part R2*
G01X-11136Y-984D02*
G01X-11614Y-984D01*
G01X-11136Y-1188D02*
G01X-11136Y-984D01*
G01X-11136Y-1188D02*
G01X-11159Y-1256D01*
G01X-11159Y-1256D02*
G01X-11182Y-1279D01*
G01X-11182Y-1279D02*
G01X-11227Y-1302D01*
G01X-11227Y-1302D02*
G01X-11273Y-1302D01*
G01X-11273Y-1302D02*
G01X-11318Y-1279D01*
G01X-11318Y-1279D02*
G01X-11341Y-1256D01*
G01X-11341Y-1256D02*
G01X-11364Y-1188D01*
G01X-11364Y-984D02*
G01X-11364Y-1188D01*
G01X-11364Y-1143D02*
G01X-11614Y-1302D01*
G01X-11227Y-1506D02*
G01X-11250Y-1506D01*
G01X-11182Y-1529D02*
G01X-11227Y-1506D01*
G01X-11159Y-1552D02*
G01X-11182Y-1529D01*
G01X-11136Y-1597D02*
G01X-11159Y-1552D01*
G01X-11136Y-1688D02*
G01X-11136Y-1597D01*
G01X-11136Y-1688D02*
G01X-11159Y-1734D01*
G01X-11159Y-1734D02*
G01X-11182Y-1756D01*
G01X-11182Y-1756D02*
G01X-11227Y-1779D01*
G01X-11227Y-1779D02*
G01X-11273Y-1779D01*
G01X-11273Y-1779D02*
G01X-11318Y-1756D01*
G01X-11318Y-1756D02*
G01X-11386Y-1711D01*
G01X-11386Y-1711D02*
G01X-11614Y-1484D01*
G01X-11614Y-1802D02*
G01X-11614Y-1484D01*
G04 Draw part V1*
G04 draw part outline for part V1*
G01X-3503Y-3267D02*
G01X-5472Y-3267D01*
G01X-5472Y-3267D02*
G01X-5472Y-2244D01*
G01X-5472Y-2244D02*
G01X-3503Y-2244D01*
G01X-3503Y-2244D02*
G01X-3503Y-3267D01*
G04 draw reference designator for part V1*
G01X-4921Y-3459D02*
G01X-4739Y-3937D01*
G01X-4557Y-3459D02*
G01X-4739Y-3937D01*
G01X-4330Y-3527D02*
G01X-4375Y-3550D01*
G01X-4262Y-3459D02*
G01X-4330Y-3527D01*
G01X-4262Y-3459D02*
G01X-4262Y-3937D01*
G04 Draw part U2*
G04 draw part outline for part U2*
G01X16929Y4724D02*
G01X5905Y4724D01*
G01X5905Y4724D02*
G01X5905Y-4724D01*
G01X5905Y-4724D02*
G01X16929Y-4724D01*
G01X16929Y-4724D02*
G01X19575Y-1874D01*
G01X19575Y-1874D02*
G01X19575Y1875D01*
G01X19575Y1875D02*
G01X16929Y4724D01*
G54D12*
G01X19575Y1875D02*
G01X20225Y1875D01*
G01X20225Y1875D02*
G01X20225Y-1874D01*
G01X20225Y-1874D02*
G01X19575Y-1874D01*
G01X19575Y-1874D02*
G01X19575Y1875D01*
G04 draw reference designator for part U2*
G54D10*
G01X17598Y4926D02*
G01X17598Y4585D01*
G01X17598Y4585D02*
G01X17621Y4517D01*
G01X17621Y4517D02*
G01X17666Y4471D01*
G01X17666Y4471D02*
G01X17734Y4448D01*
G01X17780Y4448D02*
G01X17734Y4448D01*
G01X17848Y4471D02*
G01X17780Y4448D01*
G01X17893Y4517D02*
G01X17848Y4471D01*
G01X17916Y4585D02*
G01X17893Y4517D01*
G01X17916Y4926D02*
G01X17916Y4585D01*
G01X18121Y4835D02*
G01X18121Y4812D01*
G01X18143Y4880D02*
G01X18121Y4835D01*
G01X18166Y4903D02*
G01X18143Y4880D01*
G01X18212Y4926D02*
G01X18166Y4903D01*
G01X18302Y4926D02*
G01X18212Y4926D01*
G01X18302Y4926D02*
G01X18348Y4903D01*
G01X18348Y4903D02*
G01X18371Y4880D01*
G01X18371Y4880D02*
G01X18393Y4835D01*
G01X18393Y4835D02*
G01X18393Y4789D01*
G01X18393Y4789D02*
G01X18371Y4744D01*
G01X18371Y4744D02*
G01X18325Y4676D01*
G01X18325Y4676D02*
G01X18098Y4448D01*
G01X18416Y4448D02*
G01X18098Y4448D01*
G04 Draw part U3*
G04 draw part outline for part U3*
G54D11*
G01X-19685Y-3681D02*
G01X-12795Y-3681D01*
G01X-12795Y-3681D02*
G01X-12795Y3996D01*
G01X-12795Y3996D02*
G01X-19685Y3996D01*
G01X-19685Y3996D02*
G01X-19685Y649D01*
G01X-19685Y649D02*
G01X-19685Y649D01*
G01X-19685Y649D02*
G01X-19685Y-531D01*
G01X-19685Y-531D02*
G01X-19685Y-531D01*
G01X-19685Y-531D02*
G01X-19685Y-3681D01*
G04 draw reference designator for part U3*
G54D10*
G01X-12121Y-3543D02*
G01X-12462Y-3543D01*
G01X-12462Y-3543D02*
G01X-12530Y-3566D01*
G01X-12530Y-3566D02*
G01X-12575Y-3611D01*
G01X-12575Y-3611D02*
G01X-12598Y-3679D01*
G01X-12598Y-3725D02*
G01X-12598Y-3679D01*
G01X-12575Y-3793D02*
G01X-12598Y-3725D01*
G01X-12530Y-3838D02*
G01X-12575Y-3793D01*
G01X-12462Y-3861D02*
G01X-12530Y-3838D01*
G01X-12121Y-3861D02*
G01X-12462Y-3861D01*
G01X-12121Y-4338D02*
G01X-12121Y-4088D01*
G01X-12121Y-4338D02*
G01X-12302Y-4202D01*
G01X-12302Y-4270D02*
G01X-12302Y-4202D01*
G01X-12302Y-4270D02*
G01X-12325Y-4316D01*
G01X-12325Y-4316D02*
G01X-12348Y-4338D01*
G01X-12348Y-4338D02*
G01X-12416Y-4361D01*
G01X-12416Y-4361D02*
G01X-12462Y-4361D01*
G01X-12462Y-4361D02*
G01X-12530Y-4338D01*
G01X-12530Y-4338D02*
G01X-12575Y-4293D01*
G01X-12575Y-4293D02*
G01X-12598Y-4225D01*
G01X-12598Y-4156D02*
G01X-12598Y-4225D01*
G01X-12575Y-4088D02*
G01X-12598Y-4156D01*
G01X-12552Y-4066D02*
G01X-12575Y-4088D01*
G01X-12507Y-4043D02*
G01X-12552Y-4066D01*
G04 Draw part B1*
G04 Draw part U4*
G04 draw part outline for part U4*
G54D11*
G01X-5203Y0D02*
G01X-5203Y-748D01*
G01X-5203Y-748D02*
G01X-4717Y-748D01*
G01X-4717Y-748D02*
G01X-4717Y0D01*
G01X-4717Y0D02*
G01X-4868Y0D01*
G01X-4868Y0D02*
G01X-4868Y-93D01*
G01X-4868Y-93D02*
G01X-5052Y-93D01*
G01X-5052Y-93D02*
G01X-5052Y0D01*
G01X-5052Y0D02*
G01X-5203Y0D01*
G04 draw reference designator for part U4*
G54D10*
G01X-5231Y-1181D02*
G01X-5572Y-1181D01*
G01X-5572Y-1181D02*
G01X-5640Y-1203D01*
G01X-5640Y-1203D02*
G01X-5685Y-1249D01*
G01X-5685Y-1249D02*
G01X-5708Y-1317D01*
G01X-5708Y-1362D02*
G01X-5708Y-1317D01*
G01X-5685Y-1431D02*
G01X-5708Y-1362D01*
G01X-5640Y-1476D02*
G01X-5685Y-1431D01*
G01X-5572Y-1499D02*
G01X-5640Y-1476D01*
G01X-5231Y-1499D02*
G01X-5572Y-1499D01*
G01X-5231Y-1908D02*
G01X-5549Y-1681D01*
G01X-5549Y-2022D02*
G01X-5549Y-1681D01*
G01X-5231Y-1908D02*
G01X-5708Y-1908D01*
G04 Draw part C5*
G04 draw part outline for part C5*
G54D11*
G01X-6181Y433D02*
G01X-6181Y-1535D01*
G01X-6181Y-1535D02*
G01X-7204Y-1535D01*
G01X-7204Y-1535D02*
G01X-7204Y433D01*
G01X-7204Y433D02*
G01X-6181Y433D01*
G04 draw reference designator for part C5*
G01X-7661Y-908D02*
G01X-7707Y-931D01*
G01X-7616Y-863D02*
G01X-7661Y-908D01*
G01X-7593Y-817D02*
G01X-7616Y-863D01*
G01X-7593Y-726D02*
G01X-7593Y-817D01*
G01X-7593Y-726D02*
G01X-7616Y-681D01*
G01X-7616Y-681D02*
G01X-7661Y-636D01*
G01X-7661Y-636D02*
G01X-7707Y-613D01*
G01X-7707Y-613D02*
G01X-7775Y-590D01*
G01X-7775Y-590D02*
G01X-7889Y-590D01*
G01X-7889Y-590D02*
G01X-7957Y-613D01*
G01X-7957Y-613D02*
G01X-8002Y-636D01*
G01X-8002Y-636D02*
G01X-8048Y-681D01*
G01X-8048Y-681D02*
G01X-8070Y-726D01*
G01X-8070Y-817D02*
G01X-8070Y-726D01*
G01X-8048Y-863D02*
G01X-8070Y-817D01*
G01X-8002Y-908D02*
G01X-8048Y-863D01*
G01X-7957Y-931D02*
G01X-8002Y-908D01*
G01X-7593Y-1158D02*
G01X-7593Y-1386D01*
G01X-7593Y-1158D02*
G01X-7798Y-1136D01*
G01X-7775Y-1158D02*
G01X-7798Y-1136D01*
G01X-7752Y-1226D02*
G01X-7775Y-1158D01*
G01X-7752Y-1295D02*
G01X-7752Y-1226D01*
G01X-7752Y-1295D02*
G01X-7775Y-1363D01*
G01X-7775Y-1363D02*
G01X-7820Y-1408D01*
G01X-7820Y-1408D02*
G01X-7889Y-1431D01*
G01X-7889Y-1431D02*
G01X-7934Y-1431D01*
G01X-7934Y-1431D02*
G01X-8002Y-1408D01*
G01X-8002Y-1408D02*
G01X-8048Y-1363D01*
G01X-8048Y-1363D02*
G01X-8070Y-1295D01*
G01X-8070Y-1226D02*
G01X-8070Y-1295D01*
G01X-8048Y-1158D02*
G01X-8070Y-1226D01*
G01X-8025Y-1136D02*
G01X-8048Y-1158D01*
G01X-7979Y-1113D02*
G01X-8025Y-1136D01*
G04 Draw part D2*
G04 draw part outline for part D2*
G01X-7637Y-6929D02*
G01X-9606Y-6929D01*
G01X-9606Y-6929D02*
G01X-9606Y-6062D01*
G01X-9606Y-6062D02*
G01X-7637Y-6062D01*
G01X-7637Y-6062D02*
G01X-7637Y-6929D01*
G04 draw reference designator for part D2*
G01X-10826Y-6018D02*
G01X-10826Y-6496D01*
G01X-10667Y-6018D02*
G01X-10826Y-6018D01*
G01X-10667Y-6018D02*
G01X-10599Y-6041D01*
G01X-10599Y-6041D02*
G01X-10554Y-6086D01*
G01X-10554Y-6086D02*
G01X-10531Y-6132D01*
G01X-10531Y-6132D02*
G01X-10508Y-6200D01*
G01X-10508Y-6200D02*
G01X-10508Y-6314D01*
G01X-10508Y-6314D02*
G01X-10531Y-6382D01*
G01X-10531Y-6382D02*
G01X-10554Y-6427D01*
G01X-10554Y-6427D02*
G01X-10599Y-6473D01*
G01X-10599Y-6473D02*
G01X-10667Y-6496D01*
G01X-10826Y-6496D02*
G01X-10667Y-6496D01*
G01X-10304Y-6109D02*
G01X-10304Y-6132D01*
G01X-10281Y-6064D02*
G01X-10304Y-6109D01*
G01X-10258Y-6041D02*
G01X-10281Y-6064D01*
G01X-10213Y-6018D02*
G01X-10258Y-6041D01*
G01X-10122Y-6018D02*
G01X-10213Y-6018D01*
G01X-10122Y-6018D02*
G01X-10076Y-6041D01*
G01X-10076Y-6041D02*
G01X-10054Y-6064D01*
G01X-10054Y-6064D02*
G01X-10031Y-6109D01*
G01X-10031Y-6109D02*
G01X-10031Y-6155D01*
G01X-10031Y-6155D02*
G01X-10054Y-6200D01*
G01X-10054Y-6200D02*
G01X-10099Y-6268D01*
G01X-10099Y-6268D02*
G01X-10326Y-6496D01*
G01X-10008Y-6496D02*
G01X-10326Y-6496D01*
G04 Draw part R5*
G04 draw part outline for part R5*
G01X-8622Y-3700D02*
G01X-8622Y-5669D01*
G01X-8622Y-5669D02*
G01X-9488Y-5669D01*
G01X-9488Y-5669D02*
G01X-9488Y-3700D01*
G01X-9488Y-3700D02*
G01X-8622Y-3700D01*
G04 draw reference designator for part R5*
G01X-9758Y-4330D02*
G01X-10236Y-4330D01*
G01X-9758Y-4535D02*
G01X-9758Y-4330D01*
G01X-9758Y-4535D02*
G01X-9781Y-4603D01*
G01X-9781Y-4603D02*
G01X-9804Y-4626D01*
G01X-9804Y-4626D02*
G01X-9849Y-4648D01*
G01X-9849Y-4648D02*
G01X-9895Y-4648D01*
G01X-9895Y-4648D02*
G01X-9940Y-4626D01*
G01X-9940Y-4626D02*
G01X-9963Y-4603D01*
G01X-9963Y-4603D02*
G01X-9986Y-4535D01*
G01X-9986Y-4330D02*
G01X-9986Y-4535D01*
G01X-9986Y-4489D02*
G01X-10236Y-4648D01*
G01X-9758Y-4876D02*
G01X-9758Y-5103D01*
G01X-9758Y-4876D02*
G01X-9963Y-4853D01*
G01X-9940Y-4876D02*
G01X-9963Y-4853D01*
G01X-9918Y-4944D02*
G01X-9940Y-4876D01*
G01X-9918Y-5012D02*
G01X-9918Y-4944D01*
G01X-9918Y-5012D02*
G01X-9940Y-5080D01*
G01X-9940Y-5080D02*
G01X-9986Y-5126D01*
G01X-9986Y-5126D02*
G01X-10054Y-5148D01*
G01X-10054Y-5148D02*
G01X-10099Y-5148D01*
G01X-10099Y-5148D02*
G01X-10168Y-5126D01*
G01X-10168Y-5126D02*
G01X-10213Y-5080D01*
G01X-10213Y-5080D02*
G01X-10236Y-5012D01*
G01X-10236Y-4944D02*
G01X-10236Y-5012D01*
G01X-10213Y-4876D02*
G01X-10236Y-4944D01*
G01X-10190Y-4853D02*
G01X-10213Y-4876D01*
G01X-10145Y-4830D02*
G01X-10190Y-4853D01*
G04 Draw part C6*
G04 draw part outline for part C6*
G01X-2834Y433D02*
G01X-2834Y-1535D01*
G01X-2834Y-1535D02*
G01X-3858Y-1535D01*
G01X-3858Y-1535D02*
G01X-3858Y433D01*
G01X-3858Y433D02*
G01X-2834Y433D01*
G04 draw reference designator for part C6*
G01X-2189Y-652D02*
G01X-2234Y-675D01*
G01X-2143Y-607D02*
G01X-2189Y-652D01*
G01X-2121Y-561D02*
G01X-2143Y-607D01*
G01X-2121Y-471D02*
G01X-2121Y-561D01*
G01X-2121Y-471D02*
G01X-2143Y-425D01*
G01X-2143Y-425D02*
G01X-2189Y-380D01*
G01X-2189Y-380D02*
G01X-2234Y-357D01*
G01X-2234Y-357D02*
G01X-2302Y-334D01*
G01X-2302Y-334D02*
G01X-2416Y-334D01*
G01X-2416Y-334D02*
G01X-2484Y-357D01*
G01X-2484Y-357D02*
G01X-2530Y-380D01*
G01X-2530Y-380D02*
G01X-2575Y-425D01*
G01X-2575Y-425D02*
G01X-2598Y-471D01*
G01X-2598Y-561D02*
G01X-2598Y-471D01*
G01X-2575Y-607D02*
G01X-2598Y-561D01*
G01X-2530Y-652D02*
G01X-2575Y-607D01*
G01X-2484Y-675D02*
G01X-2530Y-652D01*
G01X-2143Y-1107D02*
G01X-2189Y-1130D01*
G01X-2121Y-1039D02*
G01X-2143Y-1107D01*
G01X-2121Y-993D02*
G01X-2121Y-1039D01*
G01X-2121Y-993D02*
G01X-2143Y-925D01*
G01X-2143Y-925D02*
G01X-2212Y-880D01*
G01X-2212Y-880D02*
G01X-2325Y-857D01*
G01X-2325Y-857D02*
G01X-2439Y-857D01*
G01X-2439Y-857D02*
G01X-2530Y-880D01*
G01X-2530Y-880D02*
G01X-2575Y-925D01*
G01X-2575Y-925D02*
G01X-2598Y-993D01*
G01X-2598Y-1016D02*
G01X-2598Y-993D01*
G01X-2575Y-1084D02*
G01X-2598Y-1016D01*
G01X-2530Y-1130D02*
G01X-2575Y-1084D01*
G01X-2462Y-1152D02*
G01X-2530Y-1130D01*
G01X-2439Y-1152D02*
G01X-2462Y-1152D01*
G01X-2371Y-1130D02*
G01X-2439Y-1152D01*
G01X-2325Y-1084D02*
G01X-2371Y-1130D01*
G01X-2302Y-1016D02*
G01X-2325Y-1084D01*
G01X-2302Y-993D02*
G01X-2302Y-1016D01*
G01X-2302Y-993D02*
G01X-2325Y-925D01*
G01X-2325Y-925D02*
G01X-2371Y-880D01*
G01X-2371Y-880D02*
G01X-2439Y-857D01*
G04 Draw part R4*
G04 draw part outline for part R4*
G01X-2913Y1141D02*
G01X-4881Y1141D01*
G01X-4881Y1141D02*
G01X-4881Y2007D01*
G01X-4881Y2007D02*
G01X-2913Y2007D01*
G01X-2913Y2007D02*
G01X-2913Y1141D01*
G04 draw reference designator for part R4*
G01X-4724Y2839D02*
G01X-4724Y2362D01*
G01X-4519Y2839D02*
G01X-4724Y2839D01*
G01X-4519Y2839D02*
G01X-4451Y2816D01*
G01X-4451Y2816D02*
G01X-4428Y2794D01*
G01X-4428Y2794D02*
G01X-4406Y2748D01*
G01X-4406Y2748D02*
G01X-4406Y2703D01*
G01X-4406Y2703D02*
G01X-4428Y2657D01*
G01X-4428Y2657D02*
G01X-4451Y2634D01*
G01X-4451Y2634D02*
G01X-4519Y2612D01*
G01X-4724Y2612D02*
G01X-4519Y2612D01*
G01X-4565Y2612D02*
G01X-4406Y2362D01*
G01X-3997Y2839D02*
G01X-4224Y2521D01*
G01X-3883Y2521D02*
G01X-4224Y2521D01*
G01X-3997Y2839D02*
G01X-3997Y2362D01*
G04 Draw part Z1*
G04 draw part outline for part Z1*
G54D12*
G01X-6889Y-7263D02*
G01X-6889Y-5118D01*
G01X-6889Y-5118D02*
G01X-2165Y-5118D01*
G01X-2165Y-5118D02*
G01X-2165Y-7263D01*
G04 draw reference designator for part Z1*
G54D10*
G01X-1650Y-5231D02*
G01X-1968Y-5708D01*
G01X-1650Y-5231D02*
G01X-1968Y-5231D01*
G01X-1650Y-5708D02*
G01X-1968Y-5708D01*
G01X-1423Y-5299D02*
G01X-1468Y-5322D01*
G01X-1354Y-5231D02*
G01X-1423Y-5299D01*
G01X-1354Y-5231D02*
G01X-1354Y-5708D01*
G04 Draw part U1*
G04 draw part outline for part U1*
G54D11*
G01X-1062Y196D02*
G01X948Y196D01*
G01X948Y196D02*
G01X948Y984D01*
G01X948Y984D02*
G01X-1062Y984D01*
G01X-1062Y984D02*
G01X-1062Y196D01*
G01X-1062Y393D02*
G01X-866Y393D01*
G01X-866Y393D02*
G01X-866Y787D01*
G01X-866Y787D02*
G01X-1062Y787D01*
G01X-1062Y787D02*
G01X-1062Y393D01*
G04 draw reference designator for part U1*
G01X-1968Y1855D02*
G01X-1968Y1514D01*
G01X-1968Y1514D02*
G01X-1945Y1446D01*
G01X-1945Y1446D02*
G01X-1900Y1400D01*
G01X-1900Y1400D02*
G01X-1832Y1377D01*
G01X-1786Y1377D02*
G01X-1832Y1377D01*
G01X-1718Y1400D02*
G01X-1786Y1377D01*
G01X-1673Y1446D02*
G01X-1718Y1400D01*
G01X-1650Y1514D02*
G01X-1673Y1446D01*
G01X-1650Y1855D02*
G01X-1650Y1514D01*
G01X-1423Y1787D02*
G01X-1468Y1764D01*
G01X-1354Y1855D02*
G01X-1423Y1787D01*
G01X-1354Y1855D02*
G01X-1354Y1377D01*
G04 Draw part L1*
G04 draw part outline for part L1*
G01X-1537Y-4755D02*
G01X1261Y-4755D01*
G01X1261Y-4755D02*
G01X1261Y-2330D01*
G01X1261Y-2330D02*
G01X-1537Y-2330D01*
G01X-1537Y-2330D02*
G01X-1537Y-4755D01*
G04 draw reference designator for part L1*
G54D10*
G01X-393Y-5034D02*
G01X-393Y-5511D01*
G01X-120Y-5511D02*
G01X-393Y-5511D01*
G01X106Y-5102D02*
G01X60Y-5125D01*
G01X174Y-5034D02*
G01X106Y-5102D01*
G01X174Y-5034D02*
G01X174Y-5511D01*
G04 draw part outline for part x1*
G04 draw part outline for part x2*
G04 Draw part C1*
G04 draw part outline for part C1*
G54D11*
G01X1515Y-1554D02*
G01X1515Y2345D01*
G01X1515Y2345D02*
G01X3208Y2345D01*
G01X3208Y2345D02*
G01X3208Y-1554D01*
G01X3208Y-1554D02*
G01X1515Y-1554D01*
G54D12*
G01X1762Y-1984D02*
G01X2362Y-1984D01*
G01X2062Y-2284D02*
G01X2062Y-1684D01*
G04 draw reference designator for part C1*
G54D11*
G01X3558Y1059D02*
G01X3513Y1037D01*
G01X3604Y1105D02*
G01X3558Y1059D01*
G01X3626Y1150D02*
G01X3604Y1105D01*
G01X3626Y1241D02*
G01X3626Y1150D01*
G01X3626Y1241D02*
G01X3604Y1287D01*
G01X3604Y1287D02*
G01X3558Y1332D01*
G01X3558Y1332D02*
G01X3513Y1355D01*
G01X3513Y1355D02*
G01X3445Y1377D01*
G01X3445Y1377D02*
G01X3331Y1377D01*
G01X3331Y1377D02*
G01X3263Y1355D01*
G01X3263Y1355D02*
G01X3217Y1332D01*
G01X3217Y1332D02*
G01X3172Y1287D01*
G01X3172Y1287D02*
G01X3149Y1241D01*
G01X3149Y1150D02*
G01X3149Y1241D01*
G01X3172Y1105D02*
G01X3149Y1150D01*
G01X3217Y1059D02*
G01X3172Y1105D01*
G01X3263Y1037D02*
G01X3217Y1059D01*
G01X3558Y809D02*
G01X3535Y855D01*
G01X3626Y741D02*
G01X3558Y809D01*
G01X3626Y741D02*
G01X3149Y741D01*
G04 Draw part C2*
G04 draw part outline for part C2*
G01X3877Y-2735D02*
G01X3877Y1164D01*
G01X3877Y1164D02*
G01X5570Y1164D01*
G01X5570Y1164D02*
G01X5570Y-2735D01*
G01X5570Y-2735D02*
G01X3877Y-2735D01*
G54D12*
G01X4124Y-3165D02*
G01X4724Y-3165D01*
G01X4424Y-3465D02*
G01X4424Y-2865D01*
G04 draw reference designator for part C2*
G54D11*
G01X5920Y-908D02*
G01X5875Y-931D01*
G01X5966Y-863D02*
G01X5920Y-908D01*
G01X5989Y-817D02*
G01X5966Y-863D01*
G01X5989Y-726D02*
G01X5989Y-817D01*
G01X5989Y-726D02*
G01X5966Y-681D01*
G01X5966Y-681D02*
G01X5920Y-636D01*
G01X5920Y-636D02*
G01X5875Y-613D01*
G01X5875Y-613D02*
G01X5807Y-590D01*
G01X5807Y-590D02*
G01X5693Y-590D01*
G01X5693Y-590D02*
G01X5625Y-613D01*
G01X5625Y-613D02*
G01X5579Y-636D01*
G01X5579Y-636D02*
G01X5534Y-681D01*
G01X5534Y-681D02*
G01X5511Y-726D01*
G01X5511Y-817D02*
G01X5511Y-726D01*
G01X5534Y-863D02*
G01X5511Y-817D01*
G01X5579Y-908D02*
G01X5534Y-863D01*
G01X5625Y-931D02*
G01X5579Y-908D01*
G01X5898Y-1136D02*
G01X5875Y-1136D01*
G01X5943Y-1158D02*
G01X5898Y-1136D01*
G01X5966Y-1181D02*
G01X5943Y-1158D01*
G01X5989Y-1226D02*
G01X5966Y-1181D01*
G01X5989Y-1317D02*
G01X5989Y-1226D01*
G01X5989Y-1317D02*
G01X5966Y-1363D01*
G01X5966Y-1363D02*
G01X5943Y-1386D01*
G01X5943Y-1386D02*
G01X5898Y-1408D01*
G01X5898Y-1408D02*
G01X5852Y-1408D01*
G01X5852Y-1408D02*
G01X5807Y-1386D01*
G01X5807Y-1386D02*
G01X5739Y-1340D01*
G01X5739Y-1340D02*
G01X5511Y-1113D01*
G01X5511Y-1431D02*
G01X5511Y-1113D01*
G04 Draw part D3*
G04 draw part outline for part D3*
G01X1807Y-5394D02*
G01X4657Y-5394D01*
G01X4657Y-5394D02*
G01X4657Y-4054D01*
G01X4657Y-4054D02*
G01X1807Y-4054D01*
G01X1807Y-4054D02*
G01X1807Y-5394D01*
G04 draw reference designator for part D3*
G54D10*
G01X2559Y-5625D02*
G01X2559Y-6102D01*
G01X2718Y-5625D02*
G01X2559Y-5625D01*
G01X2718Y-5625D02*
G01X2786Y-5647D01*
G01X2786Y-5647D02*
G01X2831Y-5693D01*
G01X2831Y-5693D02*
G01X2854Y-5738D01*
G01X2854Y-5738D02*
G01X2877Y-5806D01*
G01X2877Y-5806D02*
G01X2877Y-5920D01*
G01X2877Y-5920D02*
G01X2854Y-5988D01*
G01X2854Y-5988D02*
G01X2831Y-6034D01*
G01X2831Y-6034D02*
G01X2786Y-6079D01*
G01X2786Y-6079D02*
G01X2718Y-6102D01*
G01X2559Y-6102D02*
G01X2718Y-6102D01*
G01X3354Y-5625D02*
G01X3104Y-5625D01*
G01X3354Y-5625D02*
G01X3218Y-5806D01*
G01X3286Y-5806D02*
G01X3218Y-5806D01*
G01X3286Y-5806D02*
G01X3331Y-5829D01*
G01X3331Y-5829D02*
G01X3354Y-5852D01*
G01X3354Y-5852D02*
G01X3377Y-5920D01*
G01X3377Y-5920D02*
G01X3377Y-5965D01*
G01X3377Y-5965D02*
G01X3354Y-6034D01*
G01X3354Y-6034D02*
G01X3309Y-6079D01*
G01X3309Y-6079D02*
G01X3240Y-6102D01*
G01X3172Y-6102D02*
G01X3240Y-6102D01*
G01X3104Y-6079D02*
G01X3172Y-6102D01*
G01X3081Y-6056D02*
G01X3104Y-6079D01*
G01X3059Y-6011D02*
G01X3081Y-6056D01*

G04 Draw traces*

G04 Draw Text*
M00*
M02*
