G04 FreePCB version 1.359*
G04 D:\Users\waynej\My Documents\GitHub\mGPS\A2235\CAM\top_silk.grb*
G04 top silk layer *
G04 Scale: 100 percent, Rotated: No, Reflected: No *
%FSLAX24Y24*%
%MOIN*%
%LN top silk *%
G04 Rounded Rectangle Macro, params: W/2, H/2, R *
%AMRNDREC*
21,1,$1+$1,$2+$2-$3-$3,0,0,0*
21,1,$1+$1-$3-$3,$2+$2,0,0,0*
1,1,$3+$3,$1-$3,$2-$3*
1,1,$3+$3,$3-$1,$2-$3*
1,1,$3+$3,$1-$3,$3-$2*
1,1,$3+$3,$3-$1,$3-$2*%
G04 Rectangular Thermal Macro, params: W/2, H/2, T/2 *
%AMRECTHERM*
$4=$3/2*
21,1,$1-$3,$2-$3,0-$1/2-$4,0-$2/2-$4,0*
21,1,$1-$3,$2-$3,0-$1/2-$4,$2/2+$4,0*
21,1,$1-$3,$2-$3,$1/2+$4,0-$2/2-$4,0*
21,1,$1-$3,$2-$3,$1/2+$4,$2/2+$4,0*%
%ADD10C,0.005000*%
%ADD11C,0.007000*%
%ADD12C,0.010000*%
G90*
G70D02*

G04 Step and Repeat for panelization *

G04 ----------------------- Draw board outline (positive)*
%LPD*%
G54D10*
G01X-20078Y6456D02*
G01X-20078Y-7322D01*
G04 end of side 1*
G01X20078Y-7322D01*
G04 end of side 2*
G01X20078Y6456D01*
G04 end of side 3*
G01X-20078Y6456D01*

G04 -------------- Draw Parts, Pads, Traces, Vias and Text (positive)*
%LPD*%
G04 Draw part C4*
G04 draw part outline for part C4*
G54D11*
G01X4015Y2322D02*
G01X4015Y4291D01*
G01X4015Y4291D02*
G01X5039Y4291D01*
G01X5039Y4291D02*
G01X5039Y2322D01*
G01X5039Y2322D02*
G01X4015Y2322D01*
G04 draw reference designator for part C4*
G01X3212Y3625D02*
G01X3258Y3647D01*
G01X3167Y3579D02*
G01X3212Y3625D01*
G01X3144Y3534D02*
G01X3167Y3579D01*
G01X3144Y3443D02*
G01X3144Y3534D01*
G01X3144Y3443D02*
G01X3167Y3397D01*
G01X3167Y3397D02*
G01X3212Y3352D01*
G01X3212Y3352D02*
G01X3258Y3329D01*
G01X3258Y3329D02*
G01X3326Y3307D01*
G01X3326Y3307D02*
G01X3440Y3307D01*
G01X3440Y3307D02*
G01X3508Y3329D01*
G01X3508Y3329D02*
G01X3553Y3352D01*
G01X3553Y3352D02*
G01X3599Y3397D01*
G01X3599Y3397D02*
G01X3622Y3443D01*
G01X3622Y3534D02*
G01X3622Y3443D01*
G01X3599Y3579D02*
G01X3622Y3534D01*
G01X3553Y3625D02*
G01X3599Y3579D01*
G01X3508Y3647D02*
G01X3553Y3625D01*
G01X3144Y4057D02*
G01X3462Y3829D01*
G01X3462Y4170D02*
G01X3462Y3829D01*
G01X3144Y4057D02*
G01X3622Y4057D01*
G04 Draw part R3*
G04 draw part outline for part R3*
G01X-15748Y-5590D02*
G01X-17716Y-5590D01*
G01X-17716Y-5590D02*
G01X-17716Y-4724D01*
G01X-17716Y-4724D02*
G01X-15748Y-4724D01*
G01X-15748Y-4724D02*
G01X-15748Y-5590D01*
G04 draw reference designator for part R3*
G01X-16850Y-5900D02*
G01X-16850Y-6377D01*
G01X-16645Y-5900D02*
G01X-16850Y-5900D01*
G01X-16645Y-5900D02*
G01X-16577Y-5923D01*
G01X-16577Y-5923D02*
G01X-16554Y-5946D01*
G01X-16554Y-5946D02*
G01X-16532Y-5991D01*
G01X-16532Y-5991D02*
G01X-16532Y-6037D01*
G01X-16532Y-6037D02*
G01X-16554Y-6082D01*
G01X-16554Y-6082D02*
G01X-16577Y-6105D01*
G01X-16577Y-6105D02*
G01X-16645Y-6127D01*
G01X-16850Y-6127D02*
G01X-16645Y-6127D01*
G01X-16691Y-6127D02*
G01X-16532Y-6377D01*
G01X-16054Y-5900D02*
G01X-16304Y-5900D01*
G01X-16054Y-5900D02*
G01X-16191Y-6082D01*
G01X-16123Y-6082D02*
G01X-16191Y-6082D01*
G01X-16123Y-6082D02*
G01X-16077Y-6105D01*
G01X-16077Y-6105D02*
G01X-16054Y-6127D01*
G01X-16054Y-6127D02*
G01X-16032Y-6196D01*
G01X-16032Y-6196D02*
G01X-16032Y-6241D01*
G01X-16032Y-6241D02*
G01X-16054Y-6309D01*
G01X-16054Y-6309D02*
G01X-16100Y-6355D01*
G01X-16100Y-6355D02*
G01X-16168Y-6377D01*
G01X-16236Y-6377D02*
G01X-16168Y-6377D01*
G01X-16304Y-6355D02*
G01X-16236Y-6377D01*
G01X-16327Y-6332D02*
G01X-16304Y-6355D01*
G01X-16350Y-6287D02*
G01X-16327Y-6332D01*
G04 Draw part R1*
G04 draw part outline for part R1*
G01X-12598Y984D02*
G01X-12598Y2952D01*
G01X-12598Y2952D02*
G01X-11732Y2952D01*
G01X-11732Y2952D02*
G01X-11732Y984D01*
G01X-11732Y984D02*
G01X-12598Y984D01*
G04 draw reference designator for part R1*
G01X-11461Y2204D02*
G01X-10984Y2204D01*
G01X-11461Y2409D02*
G01X-11461Y2204D01*
G01X-11461Y2409D02*
G01X-11438Y2477D01*
G01X-11438Y2477D02*
G01X-11416Y2500D01*
G01X-11416Y2500D02*
G01X-11370Y2522D01*
G01X-11370Y2522D02*
G01X-11325Y2522D01*
G01X-11325Y2522D02*
G01X-11279Y2500D01*
G01X-11279Y2500D02*
G01X-11256Y2477D01*
G01X-11256Y2477D02*
G01X-11234Y2409D01*
G01X-11234Y2204D02*
G01X-11234Y2409D01*
G01X-11234Y2363D02*
G01X-10984Y2522D01*
G01X-11393Y2750D02*
G01X-11370Y2704D01*
G01X-11461Y2818D02*
G01X-11393Y2750D01*
G01X-11461Y2818D02*
G01X-10984Y2818D01*
G04 Draw part R2*
G04 draw part outline for part R2*
G01X-12637Y-1948D02*
G01X-12637Y19D01*
G01X-12637Y19D02*
G01X-11771Y19D01*
G01X-11771Y19D02*
G01X-11771Y-1948D01*
G01X-11771Y-1948D02*
G01X-12637Y-1948D01*
G04 draw reference designator for part R2*
G01X-11540Y-1023D02*
G01X-11062Y-1023D01*
G01X-11540Y-819D02*
G01X-11540Y-1023D01*
G01X-11540Y-819D02*
G01X-11517Y-750D01*
G01X-11517Y-750D02*
G01X-11494Y-728D01*
G01X-11494Y-728D02*
G01X-11449Y-705D01*
G01X-11449Y-705D02*
G01X-11403Y-705D01*
G01X-11403Y-705D02*
G01X-11358Y-728D01*
G01X-11358Y-728D02*
G01X-11335Y-750D01*
G01X-11335Y-750D02*
G01X-11312Y-819D01*
G01X-11312Y-1023D02*
G01X-11312Y-819D01*
G01X-11312Y-864D02*
G01X-11062Y-705D01*
G01X-11449Y-500D02*
G01X-11426Y-500D01*
G01X-11494Y-478D02*
G01X-11449Y-500D01*
G01X-11517Y-455D02*
G01X-11494Y-478D01*
G01X-11540Y-409D02*
G01X-11517Y-455D01*
G01X-11540Y-319D02*
G01X-11540Y-409D01*
G01X-11540Y-319D02*
G01X-11517Y-273D01*
G01X-11517Y-273D02*
G01X-11494Y-250D01*
G01X-11494Y-250D02*
G01X-11449Y-228D01*
G01X-11449Y-228D02*
G01X-11403Y-228D01*
G01X-11403Y-228D02*
G01X-11358Y-250D01*
G01X-11358Y-250D02*
G01X-11290Y-296D01*
G01X-11290Y-296D02*
G01X-11062Y-523D01*
G01X-11062Y-205D02*
G01X-11062Y-523D01*
G04 Draw part V1*
G04 draw part outline for part V1*
G01X-3503Y-3267D02*
G01X-5472Y-3267D01*
G01X-5472Y-3267D02*
G01X-5472Y-2244D01*
G01X-5472Y-2244D02*
G01X-3503Y-2244D01*
G01X-3503Y-2244D02*
G01X-3503Y-3267D01*
G04 draw reference designator for part V1*
G01X-4488Y-4138D02*
G01X-4670Y-3661D01*
G01X-4851Y-4138D02*
G01X-4670Y-3661D01*
G01X-5079Y-4070D02*
G01X-5033Y-4047D01*
G01X-5147Y-4138D02*
G01X-5079Y-4070D01*
G01X-5147Y-4138D02*
G01X-5147Y-3661D01*
G04 Draw part C1*
G04 draw part outline for part C1*
G01X905Y-1771D02*
G01X2244Y-1771D01*
G01X2244Y-1771D02*
G01X2244Y-2480D01*
G01X2244Y-2480D02*
G01X905Y-2480D01*
G01X905Y-2480D02*
G01X905Y-1771D01*
G04 draw reference designator for part C1*
G01X2425Y-3107D02*
G01X2471Y-3084D01*
G01X2380Y-3152D02*
G01X2425Y-3107D01*
G01X2357Y-3197D02*
G01X2380Y-3152D01*
G01X2357Y-3288D02*
G01X2357Y-3197D01*
G01X2357Y-3288D02*
G01X2380Y-3334D01*
G01X2380Y-3334D02*
G01X2425Y-3379D01*
G01X2425Y-3379D02*
G01X2471Y-3402D01*
G01X2471Y-3402D02*
G01X2539Y-3425D01*
G01X2539Y-3425D02*
G01X2652Y-3425D01*
G01X2652Y-3425D02*
G01X2721Y-3402D01*
G01X2721Y-3402D02*
G01X2766Y-3379D01*
G01X2766Y-3379D02*
G01X2811Y-3334D01*
G01X2811Y-3334D02*
G01X2834Y-3288D01*
G01X2834Y-3197D02*
G01X2834Y-3288D01*
G01X2811Y-3152D02*
G01X2834Y-3197D01*
G01X2766Y-3107D02*
G01X2811Y-3152D01*
G01X2721Y-3084D02*
G01X2766Y-3107D01*
G01X2425Y-2857D02*
G01X2448Y-2902D01*
G01X2357Y-2788D02*
G01X2425Y-2857D01*
G01X2357Y-2788D02*
G01X2834Y-2788D01*
G04 Draw part C2*
G04 draw part outline for part C2*
G01X905Y885D02*
G01X2244Y885D01*
G01X2244Y885D02*
G01X2244Y177D01*
G01X2244Y177D02*
G01X905Y177D01*
G01X905Y177D02*
G01X905Y885D01*
G04 draw reference designator for part C2*
G01X220Y1302D02*
G01X266Y1325D01*
G01X175Y1256D02*
G01X220Y1302D01*
G01X152Y1211D02*
G01X175Y1256D01*
G01X152Y1120D02*
G01X152Y1211D01*
G01X152Y1120D02*
G01X175Y1075D01*
G01X175Y1075D02*
G01X220Y1029D01*
G01X220Y1029D02*
G01X266Y1006D01*
G01X266Y1006D02*
G01X334Y984D01*
G01X334Y984D02*
G01X448Y984D01*
G01X448Y984D02*
G01X516Y1006D01*
G01X516Y1006D02*
G01X561Y1029D01*
G01X561Y1029D02*
G01X607Y1075D01*
G01X607Y1075D02*
G01X629Y1120D01*
G01X629Y1211D02*
G01X629Y1120D01*
G01X607Y1256D02*
G01X629Y1211D01*
G01X561Y1302D02*
G01X607Y1256D01*
G01X516Y1325D02*
G01X561Y1302D01*
G01X243Y1529D02*
G01X266Y1529D01*
G01X198Y1552D02*
G01X243Y1529D01*
G01X175Y1575D02*
G01X198Y1552D01*
G01X152Y1620D02*
G01X175Y1575D01*
G01X152Y1711D02*
G01X152Y1620D01*
G01X152Y1711D02*
G01X175Y1756D01*
G01X175Y1756D02*
G01X198Y1779D01*
G01X198Y1779D02*
G01X243Y1802D01*
G01X243Y1802D02*
G01X289Y1802D01*
G01X289Y1802D02*
G01X334Y1779D01*
G01X334Y1779D02*
G01X402Y1734D01*
G01X402Y1734D02*
G01X629Y1506D01*
G01X629Y1825D02*
G01X629Y1506D01*
G04 Draw part C3*
G04 draw part outline for part C3*
G01X3248Y-1279D02*
G01X3248Y59D01*
G01X3248Y59D02*
G01X3956Y59D01*
G01X3956Y59D02*
G01X3956Y-1279D01*
G01X3956Y-1279D02*
G01X3248Y-1279D01*
G04 draw reference designator for part C3*
G01X4236Y-705D02*
G01X4282Y-682D01*
G01X4191Y-750D02*
G01X4236Y-705D01*
G01X4168Y-796D02*
G01X4191Y-750D01*
G01X4168Y-887D02*
G01X4168Y-796D01*
G01X4168Y-887D02*
G01X4191Y-932D01*
G01X4191Y-932D02*
G01X4236Y-978D01*
G01X4236Y-978D02*
G01X4282Y-1000D01*
G01X4282Y-1000D02*
G01X4350Y-1023D01*
G01X4350Y-1023D02*
G01X4463Y-1023D01*
G01X4463Y-1023D02*
G01X4532Y-1000D01*
G01X4532Y-1000D02*
G01X4577Y-978D01*
G01X4577Y-978D02*
G01X4622Y-932D01*
G01X4622Y-932D02*
G01X4645Y-887D01*
G01X4645Y-796D02*
G01X4645Y-887D01*
G01X4622Y-750D02*
G01X4645Y-796D01*
G01X4577Y-705D02*
G01X4622Y-750D01*
G01X4532Y-682D02*
G01X4577Y-705D01*
G01X4168Y-205D02*
G01X4168Y-455D01*
G01X4168Y-205D02*
G01X4350Y-341D01*
G01X4350Y-273D02*
G01X4350Y-341D01*
G01X4350Y-273D02*
G01X4372Y-228D01*
G01X4372Y-228D02*
G01X4395Y-205D01*
G01X4395Y-205D02*
G01X4463Y-182D01*
G01X4463Y-182D02*
G01X4509Y-182D01*
G01X4509Y-182D02*
G01X4577Y-205D01*
G01X4577Y-205D02*
G01X4622Y-250D01*
G01X4622Y-250D02*
G01X4645Y-319D01*
G01X4645Y-387D02*
G01X4645Y-319D01*
G01X4622Y-455D02*
G01X4645Y-387D01*
G01X4600Y-478D02*
G01X4622Y-455D01*
G01X4554Y-500D02*
G01X4600Y-478D01*
G04 Draw part U2*
G04 draw part outline for part U2*
G01X16929Y4724D02*
G01X5905Y4724D01*
G01X5905Y4724D02*
G01X5905Y-4724D01*
G01X5905Y-4724D02*
G01X16929Y-4724D01*
G01X16929Y-4724D02*
G01X19575Y-1874D01*
G01X19575Y-1874D02*
G01X19575Y1875D01*
G01X19575Y1875D02*
G01X16929Y4724D01*
G54D12*
G01X19575Y1875D02*
G01X20225Y1875D01*
G01X20225Y1875D02*
G01X20225Y-1874D01*
G01X20225Y-1874D02*
G01X19575Y-1874D01*
G01X19575Y-1874D02*
G01X19575Y1875D01*
G04 draw reference designator for part U2*
G54D10*
G01X17598Y4926D02*
G01X17598Y4585D01*
G01X17598Y4585D02*
G01X17621Y4517D01*
G01X17621Y4517D02*
G01X17666Y4471D01*
G01X17666Y4471D02*
G01X17734Y4448D01*
G01X17780Y4448D02*
G01X17734Y4448D01*
G01X17848Y4471D02*
G01X17780Y4448D01*
G01X17893Y4517D02*
G01X17848Y4471D01*
G01X17916Y4585D02*
G01X17893Y4517D01*
G01X17916Y4926D02*
G01X17916Y4585D01*
G01X18121Y4835D02*
G01X18121Y4812D01*
G01X18143Y4880D02*
G01X18121Y4835D01*
G01X18166Y4903D02*
G01X18143Y4880D01*
G01X18212Y4926D02*
G01X18166Y4903D01*
G01X18302Y4926D02*
G01X18212Y4926D01*
G01X18302Y4926D02*
G01X18348Y4903D01*
G01X18348Y4903D02*
G01X18371Y4880D01*
G01X18371Y4880D02*
G01X18393Y4835D01*
G01X18393Y4835D02*
G01X18393Y4789D01*
G01X18393Y4789D02*
G01X18371Y4744D01*
G01X18371Y4744D02*
G01X18325Y4676D01*
G01X18325Y4676D02*
G01X18098Y4448D01*
G01X18416Y4448D02*
G01X18098Y4448D01*
G04 Draw part U1*
G04 draw part outline for part U1*
G04 draw reference designator for part U1*
G01X2514Y-2047D02*
G01X2855Y-2047D01*
G01X2855Y-2047D02*
G01X2923Y-2024D01*
G01X2923Y-2024D02*
G01X2969Y-1979D01*
G01X2969Y-1979D02*
G01X2992Y-1910D01*
G01X2992Y-1865D02*
G01X2992Y-1910D01*
G01X2969Y-1797D02*
G01X2992Y-1865D01*
G01X2923Y-1751D02*
G01X2969Y-1797D01*
G01X2855Y-1729D02*
G01X2923Y-1751D01*
G01X2514Y-1729D02*
G01X2855Y-1729D01*
G01X2583Y-1501D02*
G01X2605Y-1547D01*
G01X2514Y-1433D02*
G01X2583Y-1501D01*
G01X2514Y-1433D02*
G01X2992Y-1433D01*
G04 Draw part U3*
G04 draw part outline for part U3*
G54D11*
G01X-19685Y-3681D02*
G01X-12795Y-3681D01*
G01X-12795Y-3681D02*
G01X-12795Y3996D01*
G01X-12795Y3996D02*
G01X-19685Y3996D01*
G01X-19685Y3996D02*
G01X-19685Y649D01*
G01X-19685Y649D02*
G01X-19685Y649D01*
G01X-19685Y649D02*
G01X-19685Y-531D01*
G01X-19685Y-531D02*
G01X-19685Y-531D01*
G01X-19685Y-531D02*
G01X-19685Y-3681D01*
G04 draw reference designator for part U3*
G54D10*
G01X-12524Y-4173D02*
G01X-12183Y-4173D01*
G01X-12183Y-4173D02*
G01X-12115Y-4150D01*
G01X-12115Y-4150D02*
G01X-12069Y-4105D01*
G01X-12069Y-4105D02*
G01X-12047Y-4036D01*
G01X-12047Y-3991D02*
G01X-12047Y-4036D01*
G01X-12069Y-3923D02*
G01X-12047Y-3991D01*
G01X-12115Y-3877D02*
G01X-12069Y-3923D01*
G01X-12183Y-3855D02*
G01X-12115Y-3877D01*
G01X-12524Y-3855D02*
G01X-12183Y-3855D01*
G01X-12524Y-3377D02*
G01X-12524Y-3627D01*
G01X-12524Y-3377D02*
G01X-12342Y-3514D01*
G01X-12342Y-3445D02*
G01X-12342Y-3514D01*
G01X-12342Y-3445D02*
G01X-12319Y-3400D01*
G01X-12319Y-3400D02*
G01X-12297Y-3377D01*
G01X-12297Y-3377D02*
G01X-12229Y-3355D01*
G01X-12229Y-3355D02*
G01X-12183Y-3355D01*
G01X-12183Y-3355D02*
G01X-12115Y-3377D01*
G01X-12115Y-3377D02*
G01X-12069Y-3423D01*
G01X-12069Y-3423D02*
G01X-12047Y-3491D01*
G01X-12047Y-3559D02*
G01X-12047Y-3491D01*
G01X-12069Y-3627D02*
G01X-12047Y-3559D01*
G01X-12092Y-3650D02*
G01X-12069Y-3627D01*
G01X-12138Y-3673D02*
G01X-12092Y-3650D01*
G04 Draw part L1*
G04 draw part outline for part L1*
G54D11*
G01X622Y-1311D02*
G01X622Y-184D01*
G01X622Y-184D02*
G01X-700Y-184D01*
G01X-700Y-184D02*
G01X-700Y-1311D01*
G01X-700Y-1311D02*
G01X622Y-1311D01*
G04 draw reference designator for part L1*
G54D10*
G01X-1382Y-984D02*
G01X-905Y-984D01*
G01X-905Y-711D02*
G01X-905Y-984D01*
G01X-1314Y-484D02*
G01X-1291Y-529D01*
G01X-1382Y-416D02*
G01X-1314Y-484D01*
G01X-1382Y-416D02*
G01X-905Y-416D01*
G04 Draw part B1*
G04 Draw part U4*
G04 draw part outline for part U4*
G54D11*
G01X-5203Y0D02*
G01X-5203Y-748D01*
G01X-5203Y-748D02*
G01X-4717Y-748D01*
G01X-4717Y-748D02*
G01X-4717Y0D01*
G01X-4717Y0D02*
G01X-4868Y0D01*
G01X-4868Y0D02*
G01X-4868Y-93D01*
G01X-4868Y-93D02*
G01X-5052Y-93D01*
G01X-5052Y-93D02*
G01X-5052Y0D01*
G01X-5052Y0D02*
G01X-5203Y0D01*
G04 draw reference designator for part U4*
G54D10*
G01X-3853Y-984D02*
G01X-4194Y-984D01*
G01X-4194Y-984D02*
G01X-4262Y-1006D01*
G01X-4262Y-1006D02*
G01X-4307Y-1052D01*
G01X-4307Y-1052D02*
G01X-4330Y-1120D01*
G01X-4330Y-1166D02*
G01X-4330Y-1120D01*
G01X-4307Y-1234D02*
G01X-4330Y-1166D01*
G01X-4262Y-1279D02*
G01X-4307Y-1234D01*
G01X-4194Y-1302D02*
G01X-4262Y-1279D01*
G01X-3853Y-1302D02*
G01X-4194Y-1302D01*
G01X-3853Y-1711D02*
G01X-4171Y-1484D01*
G01X-4171Y-1825D02*
G01X-4171Y-1484D01*
G01X-3853Y-1711D02*
G01X-4330Y-1711D01*
G04 Draw part C5*
G04 draw part outline for part C5*
G54D11*
G01X-6338Y334D02*
G01X-6338Y-1003D01*
G01X-6338Y-1003D02*
G01X-7047Y-1003D01*
G01X-7047Y-1003D02*
G01X-7047Y334D01*
G01X-7047Y334D02*
G01X-6338Y334D01*
G04 draw reference designator for part C5*
G01X-5535Y-652D02*
G01X-5581Y-675D01*
G01X-5490Y-607D02*
G01X-5535Y-652D01*
G01X-5467Y-561D02*
G01X-5490Y-607D01*
G01X-5467Y-471D02*
G01X-5467Y-561D01*
G01X-5467Y-471D02*
G01X-5490Y-425D01*
G01X-5490Y-425D02*
G01X-5535Y-380D01*
G01X-5535Y-380D02*
G01X-5581Y-357D01*
G01X-5581Y-357D02*
G01X-5649Y-334D01*
G01X-5649Y-334D02*
G01X-5763Y-334D01*
G01X-5763Y-334D02*
G01X-5831Y-357D01*
G01X-5831Y-357D02*
G01X-5876Y-380D01*
G01X-5876Y-380D02*
G01X-5922Y-425D01*
G01X-5922Y-425D02*
G01X-5944Y-471D01*
G01X-5944Y-561D02*
G01X-5944Y-471D01*
G01X-5922Y-607D02*
G01X-5944Y-561D01*
G01X-5876Y-652D02*
G01X-5922Y-607D01*
G01X-5831Y-675D02*
G01X-5876Y-652D01*
G01X-5467Y-902D02*
G01X-5467Y-1130D01*
G01X-5467Y-902D02*
G01X-5672Y-880D01*
G01X-5649Y-902D02*
G01X-5672Y-880D01*
G01X-5626Y-971D02*
G01X-5649Y-902D01*
G01X-5626Y-1039D02*
G01X-5626Y-971D01*
G01X-5626Y-1039D02*
G01X-5649Y-1107D01*
G01X-5649Y-1107D02*
G01X-5694Y-1152D01*
G01X-5694Y-1152D02*
G01X-5763Y-1175D01*
G01X-5763Y-1175D02*
G01X-5808Y-1175D01*
G01X-5808Y-1175D02*
G01X-5876Y-1152D01*
G01X-5876Y-1152D02*
G01X-5922Y-1107D01*
G01X-5922Y-1107D02*
G01X-5944Y-1039D01*
G01X-5944Y-971D02*
G01X-5944Y-1039D01*
G01X-5922Y-902D02*
G01X-5944Y-971D01*
G01X-5899Y-880D02*
G01X-5922Y-902D01*
G01X-5853Y-857D02*
G01X-5899Y-880D01*
G04 Draw part D2*
G04 draw part outline for part D2*
G01X-7736Y-6850D02*
G01X-9074Y-6850D01*
G01X-9074Y-6850D02*
G01X-9074Y-6141D01*
G01X-9074Y-6141D02*
G01X-7736Y-6141D01*
G01X-7736Y-6141D02*
G01X-7736Y-6850D01*
G04 draw reference designator for part D2*
G01X-10039Y-6215D02*
G01X-10039Y-6692D01*
G01X-9880Y-6215D02*
G01X-10039Y-6215D01*
G01X-9880Y-6215D02*
G01X-9812Y-6238D01*
G01X-9812Y-6238D02*
G01X-9766Y-6283D01*
G01X-9766Y-6283D02*
G01X-9743Y-6329D01*
G01X-9743Y-6329D02*
G01X-9721Y-6397D01*
G01X-9721Y-6397D02*
G01X-9721Y-6511D01*
G01X-9721Y-6511D02*
G01X-9743Y-6579D01*
G01X-9743Y-6579D02*
G01X-9766Y-6624D01*
G01X-9766Y-6624D02*
G01X-9812Y-6670D01*
G01X-9812Y-6670D02*
G01X-9880Y-6692D01*
G01X-10039Y-6692D02*
G01X-9880Y-6692D01*
G01X-9516Y-6306D02*
G01X-9516Y-6329D01*
G01X-9493Y-6261D02*
G01X-9516Y-6306D01*
G01X-9471Y-6238D02*
G01X-9493Y-6261D01*
G01X-9425Y-6215D02*
G01X-9471Y-6238D01*
G01X-9334Y-6215D02*
G01X-9425Y-6215D01*
G01X-9334Y-6215D02*
G01X-9289Y-6238D01*
G01X-9289Y-6238D02*
G01X-9266Y-6261D01*
G01X-9266Y-6261D02*
G01X-9243Y-6306D01*
G01X-9243Y-6306D02*
G01X-9243Y-6352D01*
G01X-9243Y-6352D02*
G01X-9266Y-6397D01*
G01X-9266Y-6397D02*
G01X-9312Y-6465D01*
G01X-9312Y-6465D02*
G01X-9539Y-6692D01*
G01X-9221Y-6692D02*
G01X-9539Y-6692D01*
G04 Draw part R5*
G04 draw part outline for part R5*
G01X-8307Y-4389D02*
G01X-8307Y-5728D01*
G01X-8307Y-5728D02*
G01X-9015Y-5728D01*
G01X-9015Y-5728D02*
G01X-9015Y-4389D01*
G01X-9015Y-4389D02*
G01X-8307Y-4389D01*
G04 draw reference designator for part R5*
G01X-9168Y-4330D02*
G01X-9645Y-4330D01*
G01X-9168Y-4535D02*
G01X-9168Y-4330D01*
G01X-9168Y-4535D02*
G01X-9191Y-4603D01*
G01X-9191Y-4603D02*
G01X-9213Y-4626D01*
G01X-9213Y-4626D02*
G01X-9259Y-4648D01*
G01X-9259Y-4648D02*
G01X-9304Y-4648D01*
G01X-9304Y-4648D02*
G01X-9350Y-4626D01*
G01X-9350Y-4626D02*
G01X-9372Y-4603D01*
G01X-9372Y-4603D02*
G01X-9395Y-4535D01*
G01X-9395Y-4330D02*
G01X-9395Y-4535D01*
G01X-9395Y-4489D02*
G01X-9645Y-4648D01*
G01X-9168Y-4876D02*
G01X-9168Y-5103D01*
G01X-9168Y-4876D02*
G01X-9372Y-4853D01*
G01X-9350Y-4876D02*
G01X-9372Y-4853D01*
G01X-9327Y-4944D02*
G01X-9350Y-4876D01*
G01X-9327Y-5012D02*
G01X-9327Y-4944D01*
G01X-9327Y-5012D02*
G01X-9350Y-5080D01*
G01X-9350Y-5080D02*
G01X-9395Y-5126D01*
G01X-9395Y-5126D02*
G01X-9463Y-5148D01*
G01X-9463Y-5148D02*
G01X-9509Y-5148D01*
G01X-9509Y-5148D02*
G01X-9577Y-5126D01*
G01X-9577Y-5126D02*
G01X-9622Y-5080D01*
G01X-9622Y-5080D02*
G01X-9645Y-5012D01*
G01X-9645Y-4944D02*
G01X-9645Y-5012D01*
G01X-9622Y-4876D02*
G01X-9645Y-4944D01*
G01X-9600Y-4853D02*
G01X-9622Y-4876D01*
G01X-9554Y-4830D02*
G01X-9600Y-4853D01*
G04 Draw part C6*
G04 draw part outline for part C6*
G01X-2992Y334D02*
G01X-2992Y-1003D01*
G01X-2992Y-1003D02*
G01X-3700Y-1003D01*
G01X-3700Y-1003D02*
G01X-3700Y334D01*
G01X-3700Y334D02*
G01X-2992Y334D01*
G04 draw reference designator for part C6*
G01X-2189Y-652D02*
G01X-2234Y-675D01*
G01X-2143Y-607D02*
G01X-2189Y-652D01*
G01X-2121Y-561D02*
G01X-2143Y-607D01*
G01X-2121Y-471D02*
G01X-2121Y-561D01*
G01X-2121Y-471D02*
G01X-2143Y-425D01*
G01X-2143Y-425D02*
G01X-2189Y-380D01*
G01X-2189Y-380D02*
G01X-2234Y-357D01*
G01X-2234Y-357D02*
G01X-2302Y-334D01*
G01X-2302Y-334D02*
G01X-2416Y-334D01*
G01X-2416Y-334D02*
G01X-2484Y-357D01*
G01X-2484Y-357D02*
G01X-2530Y-380D01*
G01X-2530Y-380D02*
G01X-2575Y-425D01*
G01X-2575Y-425D02*
G01X-2598Y-471D01*
G01X-2598Y-561D02*
G01X-2598Y-471D01*
G01X-2575Y-607D02*
G01X-2598Y-561D01*
G01X-2530Y-652D02*
G01X-2575Y-607D01*
G01X-2484Y-675D02*
G01X-2530Y-652D01*
G01X-2143Y-1107D02*
G01X-2189Y-1130D01*
G01X-2121Y-1039D02*
G01X-2143Y-1107D01*
G01X-2121Y-993D02*
G01X-2121Y-1039D01*
G01X-2121Y-993D02*
G01X-2143Y-925D01*
G01X-2143Y-925D02*
G01X-2212Y-880D01*
G01X-2212Y-880D02*
G01X-2325Y-857D01*
G01X-2325Y-857D02*
G01X-2439Y-857D01*
G01X-2439Y-857D02*
G01X-2530Y-880D01*
G01X-2530Y-880D02*
G01X-2575Y-925D01*
G01X-2575Y-925D02*
G01X-2598Y-993D01*
G01X-2598Y-1016D02*
G01X-2598Y-993D01*
G01X-2575Y-1084D02*
G01X-2598Y-1016D01*
G01X-2530Y-1130D02*
G01X-2575Y-1084D01*
G01X-2462Y-1152D02*
G01X-2530Y-1130D01*
G01X-2439Y-1152D02*
G01X-2462Y-1152D01*
G01X-2371Y-1130D02*
G01X-2439Y-1152D01*
G01X-2325Y-1084D02*
G01X-2371Y-1130D01*
G01X-2302Y-1016D02*
G01X-2325Y-1084D01*
G01X-2302Y-993D02*
G01X-2302Y-1016D01*
G01X-2302Y-993D02*
G01X-2325Y-925D01*
G01X-2325Y-925D02*
G01X-2371Y-880D01*
G01X-2371Y-880D02*
G01X-2439Y-857D01*
G04 Draw part R4*
G04 draw part outline for part R4*
G01X-3208Y1220D02*
G01X-4547Y1220D01*
G01X-4547Y1220D02*
G01X-4547Y1929D01*
G01X-4547Y1929D02*
G01X-3208Y1929D01*
G01X-3208Y1929D02*
G01X-3208Y1220D01*
G04 draw reference designator for part R4*
G01X-3877Y349D02*
G01X-3877Y826D01*
G01X-4082Y349D02*
G01X-3877Y349D01*
G01X-4082Y349D02*
G01X-4150Y372D01*
G01X-4150Y372D02*
G01X-4173Y394D01*
G01X-4173Y394D02*
G01X-4196Y440D01*
G01X-4196Y440D02*
G01X-4196Y485D01*
G01X-4196Y485D02*
G01X-4173Y531D01*
G01X-4173Y531D02*
G01X-4150Y554D01*
G01X-4150Y554D02*
G01X-4082Y576D01*
G01X-3877Y576D02*
G01X-4082Y576D01*
G01X-4037Y576D02*
G01X-4196Y826D01*
G01X-4605Y349D02*
G01X-4377Y667D01*
G01X-4718Y667D02*
G01X-4377Y667D01*
G01X-4605Y349D02*
G01X-4605Y826D01*
G04 Draw part Z1*
G04 draw part outline for part Z1*
G54D12*
G01X-6889Y-7263D02*
G01X-6889Y-5118D01*
G01X-6889Y-5118D02*
G01X-2165Y-5118D01*
G01X-2165Y-5118D02*
G01X-2165Y-7263D01*
G04 draw reference designator for part Z1*
G54D10*
G01X-1650Y-5231D02*
G01X-1968Y-5708D01*
G01X-1650Y-5231D02*
G01X-1968Y-5231D01*
G01X-1650Y-5708D02*
G01X-1968Y-5708D01*
G01X-1423Y-5299D02*
G01X-1468Y-5322D01*
G01X-1354Y-5231D02*
G01X-1423Y-5299D01*
G01X-1354Y-5231D02*
G01X-1354Y-5708D01*
G04 draw part outline for part x1*
G04 draw part outline for part x2*

G04 Draw traces*

G04 Draw Text*
M00*
M02*
