G04 FreePCB version 1.359*
G04 D:\Users\waynej\My Documents\GitHub\mGPS\A2235\CAM\top_solder_mask.grb*
G04 top solder mask layer *
G04 Scale: 100 percent, Rotated: No, Reflected: No *
%FSLAX24Y24*%
%MOIN*%
%LN top solder mask *%
G04 Rounded Rectangle Macro, params: W/2, H/2, R *
%AMRNDREC*
21,1,$1+$1,$2+$2-$3-$3,0,0,0*
21,1,$1+$1-$3-$3,$2+$2,0,0,0*
1,1,$3+$3,$1-$3,$2-$3*
1,1,$3+$3,$3-$1,$2-$3*
1,1,$3+$3,$1-$3,$3-$2*
1,1,$3+$3,$3-$1,$3-$2*%
G04 Rectangular Thermal Macro, params: W/2, H/2, T/2 *
%AMRECTHERM*
$4=$3/2*
21,1,$1-$3,$2-$3,0-$1/2-$4,0-$2/2-$4,0*
21,1,$1-$3,$2-$3,0-$1/2-$4,$2/2+$4,0*
21,1,$1-$3,$2-$3,$1/2+$4,0-$2/2-$4,0*
21,1,$1-$3,$2-$3,$1/2+$4,$2/2+$4,0*%
%ADD10C,0.005000*%
%ADD11R,0.094740X0.078992*%
%ADD12R,0.078992X0.078992*%
%ADD13R,0.078992X0.094740*%
%ADD14R,0.059307X0.063244*%
%ADD15R,0.063244X0.059307*%
%ADD16R,0.066000X0.066000*%
%ADD17R,0.055370X0.027024*%
%ADD18R,0.063244X0.094740*%
%ADD19R,0.051433X0.094740*%
%ADD20C,0.134110*%
%ADD21R,0.066000X0.066000*%
%ADD22R,0.122299X0.047496*%
%ADD23C,0.166000*%
%ADD24C,0.156000*%
%ADD25C,0.110000*%
%ADD26R,0.059307X0.039622*%
%ADD27R,0.031748X0.069150*%
%ADD28R,0.098677X0.078992*%
%ADD29R,0.090803X0.090803*%
%ADD30C,0.044000*%
G90*
G70D02*

G04 Step and Repeat for panelization *

G04 ----------------------- Draw board outline (positive)*
%LPD*%
G54D10*
G01X-20078Y6456D02*
G01X-20078Y-7322D01*
G04 end of side 1*
G01X20078Y-7322D01*
G04 end of side 2*
G01X20078Y6456D01*
G04 end of side 3*
G01X-20078Y6456D01*

G04 -------------- Draw Parts, Pads, Traces, Vias and Text (positive)*
%LPD*%
G04 Draw part C4*
G54D11*
G01X4527Y2755D03*
G01X4527Y3858D03*
G04 Draw part R3*
G54D12*
G01X-16181Y-5157D03*
G01X-17283Y-5157D03*
G04 Draw part R1*
G01X-12165Y1417D03*
G01X-12165Y2519D03*
G04 Draw part R2*
G01X-12204Y-1515D03*
G01X-12204Y-413D03*
G04 Draw part V1*
G54D13*
G01X-3937Y-2755D03*
G01X-5039Y-2755D03*
G04 Draw part C1*
G54D14*
G01X1240Y-2125D03*
G01X1909Y-2125D03*
G04 Draw part C2*
G01X1240Y531D03*
G01X1909Y531D03*
G04 Draw part C3*
G54D15*
G01X3602Y-944D03*
G01X3602Y-275D03*
G04 Draw part U2*
G54D16*
G01X16535Y4330D03*
G01X15755Y4330D03*
G01X14965Y4330D03*
G01X14173Y4330D03*
G01X13385Y4330D03*
G01X12598Y4330D03*
G01X11811Y4330D03*
G01X11023Y4330D03*
G01X10236Y4330D03*
G01X9448Y4330D03*
G01X9448Y-4330D03*
G01X10236Y-4330D03*
G01X11023Y-4330D03*
G01X11811Y-4330D03*
G01X12598Y-4330D03*
G01X13385Y-4330D03*
G01X14173Y-4330D03*
G01X14960Y-4330D03*
G01X15748Y-4330D03*
G01X16535Y-4329D03*
G04 Draw part U1*
G54D17*
G01X1437Y-354D03*
G01X1437Y-551D03*
G01X1437Y-748D03*
G01X1437Y-944D03*
G01X1437Y-1141D03*
G01X2500Y-1141D03*
G01X2500Y-944D03*
G01X2500Y-748D03*
G01X2500Y-551D03*
G01X2500Y-354D03*
G54D18*
G01X1968Y-748D03*
G04 Draw part U3*
G54D19*
G01X-19291Y-3090D03*
G01X-18791Y-3090D03*
G01X-18291Y-3090D03*
G01X-17791Y-3090D03*
G01X-17291Y-3090D03*
G01X-16791Y-3090D03*
G01X-14291Y-3090D03*
G01X-13791Y-3090D03*
G01X-13291Y-3090D03*
G01X-13291Y3405D03*
G01X-13791Y3405D03*
G01X-14291Y3405D03*
G01X-14791Y3405D03*
G01X-15291Y3405D03*
G01X-15791Y3405D03*
G01X-16291Y3405D03*
G01X-16791Y3405D03*
G01X-17291Y3405D03*
G01X-17791Y3405D03*
G01X-18291Y3405D03*
G01X-18791Y3405D03*
G01X-19291Y3405D03*
G54D20*
G01X-16633Y397D03*
G54D21*
G01X-17681Y1636D03*
G01X-18541Y-1393D03*
G01X-18543Y-393D03*
G01X-18543Y606D03*
G01X-18543Y1606D03*
G01X-14041Y-1393D03*
G01X-14041Y-393D03*
G01X-14041Y1606D03*
G01X-14041Y606D03*
G01X-16771Y1633D03*
G01X-15866Y1633D03*
G01X-14960Y1633D03*
G01X-17677Y-1397D03*
G01X-16771Y-1397D03*
G01X-15866Y-1397D03*
G01X-14960Y-1397D03*
G04 Draw part L1*
G54D22*
G01X-39Y-1023D03*
G01X-39Y-472D03*
G04 Draw part B1*
G54D23*
G01X18245Y0D03*
G01X-10214Y0D03*
G54D24*
G01X14890Y-3150D03*
G01X-6859Y3150D03*
G54D25*
G01X-10209Y-3150D03*
G04 Draw part U4*
G54D26*
G01X-5511Y0D03*
G01X-5511Y-374D03*
G01X-5511Y-748D03*
G01X-4409Y-748D03*
G01X-4409Y0D03*
G04 Draw part C5*
G54D15*
G01X-6692Y0D03*
G01X-6692Y-669D03*
G04 Draw part D2*
G54D14*
G01X-8070Y-6496D03*
G01X-8740Y-6496D03*
G04 Draw part R5*
G54D15*
G01X-8661Y-4724D03*
G01X-8661Y-5393D03*
G04 Draw part C6*
G01X-3346Y0D03*
G01X-3346Y-669D03*
G04 Draw part R4*
G54D14*
G01X-3543Y1574D03*
G01X-4212Y1574D03*
G04 Draw part Z1*
G54D27*
G01X-5039Y-5639D03*
G01X-4783Y-5639D03*
G01X-4527Y-5639D03*
G01X-4271Y-5639D03*
G01X-4015Y-5639D03*
G54D28*
G01X-5748Y-5688D03*
G01X-3307Y-5688D03*
G54D29*
G01X-6003Y-6692D03*
G01X-4055Y-6692D03*
G01X-5000Y-6692D03*
G01X-3051Y-6692D03*

G04 Draw traces*
G54D30*
G01X1244Y1200D03*
G01X2500Y1200D03*
G01X4527Y1811D03*
G01X1244Y1208D03*
G01X-8070Y-4133D03*
G01X-5511Y826D03*
G01X472Y-2125D03*
G01X-6692Y-2125D03*
G01X472Y-2125D03*

G04 Draw Text*

G04 Draw solder mask cutouts*
M00*
M02*
